<?xml version="1.0" encoding="UTF-8"?>
<svg xmlns="http://www.w3.org/2000/svg" xmlns:xlink="http://www.w3.org/1999/xlink" width="50px" height="52px" viewBox="0 0 50 52" version="1.1">
<g id="surface1">
<path style=" stroke:none;fill-rule:nonzero;fill:rgb(13.72549%,12.156863%,12.54902%);fill-opacity:1;" d="M 20.988281 5.566406 C 20.675781 5.246094 20.238281 5.050781 19.753906 5.050781 C 19.289062 5.046875 18.847656 5.234375 18.527344 5.566406 L 18.519531 5.566406 C 18.207031 5.882812 18.011719 6.328125 18.011719 6.816406 C 18.007812 7.28125 18.191406 7.730469 18.519531 8.0625 L 18.527344 8.070312 C 18.847656 8.398438 19.292969 8.582031 19.753906 8.582031 C 20.238281 8.582031 20.675781 8.386719 20.988281 8.070312 L 20.992188 8.0625 C 21.308594 7.746094 21.492188 7.308594 21.492188 6.816406 C 21.496094 6.347656 21.3125 5.898438 20.984375 5.566406 Z M 19.753906 29.730469 C 20.238281 29.730469 20.675781 29.53125 20.988281 29.214844 L 20.992188 29.207031 C 21.308594 28.894531 21.492188 28.453125 21.492188 27.964844 C 21.492188 27.46875 21.300781 27.03125 20.992188 26.714844 L 20.988281 26.714844 C 20.675781 26.390625 20.238281 26.195312 19.753906 26.195312 C 19.289062 26.191406 18.847656 26.378906 18.527344 26.714844 L 18.519531 26.714844 C 18.191406 27.046875 18.007812 27.496094 18.011719 27.964844 C 18.007812 28.429688 18.191406 28.875 18.519531 29.207031 L 18.527344 29.214844 C 18.847656 29.542969 19.292969 29.730469 19.753906 29.730469 Z M 29.246094 24.382812 C 29.695312 24.261719 30.078125 23.96875 30.304688 23.5625 L 30.335938 23.5 C 30.542969 23.105469 30.59375 22.648438 30.476562 22.222656 C 30.359375 21.78125 30.085938 21.390625 29.664062 21.148438 L 29.640625 21.132812 C 29.246094 20.910156 28.777344 20.855469 28.34375 20.972656 C 27.910156 21.082031 27.519531 21.375 27.28125 21.796875 C 27.050781 22.203125 26.988281 22.683594 27.105469 23.136719 C 27.226562 23.585938 27.519531 23.972656 27.917969 24.210938 L 27.921875 24.210938 C 28.335938 24.457031 28.808594 24.5 29.246094 24.378906 Z M 21.542969 15.585938 C 21.082031 15.125 20.453125 14.832031 19.753906 14.832031 C 19.082031 14.835938 18.441406 15.105469 17.972656 15.585938 C 17.515625 16.046875 17.234375 16.683594 17.234375 17.390625 C 17.234375 18.070312 17.496094 18.71875 17.972656 19.207031 C 18.425781 19.664062 19.058594 19.953125 19.75 19.953125 C 20.441406 19.953125 21.078125 19.664062 21.535156 19.207031 C 22.007812 18.71875 22.273438 18.070312 22.273438 17.390625 C 22.273438 16.714844 22.011719 16.066406 21.535156 15.585938 Z M 20.542969 12.578125 C 21.539062 12.746094 22.457031 13.226562 23.160156 13.949219 L 23.167969 13.949219 C 23.277344 14.0625 23.386719 14.183594 23.484375 14.308594 L 25.222656 13.277344 C 24.996094 12.574219 24.976562 11.824219 25.167969 11.109375 C 25.414062 10.167969 26.015625 9.328125 26.917969 8.800781 L 26.949219 8.78125 C 27.800781 8.289062 28.816406 8.15625 29.769531 8.414062 C 30.734375 8.679688 31.554688 9.316406 32.046875 10.1875 C 32.5625 11.097656 32.667969 12.136719 32.421875 13.074219 C 32.175781 14.015625 31.570312 14.859375 30.671875 15.386719 L 30.433594 15.527344 L 30.410156 15.527344 C 29.574219 15.929688 28.660156 15.992188 27.820312 15.769531 C 27.113281 15.574219 26.480469 15.183594 26 14.636719 L 24.261719 15.65625 C 24.46875 16.207031 24.574219 16.789062 24.570312 17.375 C 24.570312 17.984375 24.460938 18.570312 24.261719 19.105469 L 25.996094 20.121094 C 26.492188 19.558594 27.128906 19.179688 27.816406 18.988281 C 28.746094 18.730469 29.773438 18.839844 30.671875 19.371094 L 30.726562 19.398438 L 30.726562 19.402344 C 31.566406 19.917969 32.175781 20.734375 32.421875 21.6875 C 32.679688 22.660156 32.542969 23.695312 32.046875 24.570312 L 32.015625 24.632812 L 32.011719 24.628906 C 31.515625 25.46875 30.710938 26.085938 29.765625 26.347656 C 28.835938 26.597656 27.808594 26.492188 26.914062 25.96875 L 26.914062 25.960938 C 26.042969 25.453125 25.414062 24.621094 25.160156 23.652344 C 24.96875 22.941406 24.988281 22.1875 25.21875 21.488281 L 23.480469 20.472656 C 23.378906 20.59375 23.273438 20.710938 23.160156 20.824219 L 23.15625 20.828125 C 22.460938 21.535156 21.542969 22.027344 20.535156 22.191406 L 20.535156 24.226562 C 21.25 24.382812 21.902344 24.742188 22.410156 25.261719 L 22.414062 25.265625 C 23.09375 25.953125 23.515625 26.90625 23.515625 27.953125 C 23.515625 28.957031 23.121094 29.921875 22.414062 30.636719 L 22.410156 30.648438 C 21.726562 31.335938 20.789062 31.765625 19.753906 31.765625 C 18.722656 31.765625 17.78125 31.335938 17.101562 30.648438 L 17.097656 30.648438 L 17.097656 30.636719 C 16.390625 29.921875 15.996094 28.957031 15.996094 27.953125 C 15.996094 26.90625 16.417969 25.949219 17.097656 25.265625 L 17.097656 25.261719 L 17.101562 25.261719 C 17.609375 24.738281 18.261719 24.378906 18.976562 24.226562 L 18.976562 22.191406 C 17.960938 22.027344 17.054688 21.535156 16.363281 20.828125 L 16.355469 20.824219 C 15.449219 19.902344 14.945312 18.664062 14.945312 17.378906 C 14.945312 16.03125 15.488281 14.816406 16.355469 13.933594 L 16.363281 13.933594 C 17.066406 13.210938 17.984375 12.730469 18.980469 12.5625 L 18.980469 10.535156 C 18.269531 10.378906 17.617188 10.019531 17.105469 9.5 L 17.105469 9.496094 C 16.394531 8.777344 16 7.8125 16.003906 6.804688 C 16 5.800781 16.398438 4.835938 17.105469 4.117188 L 17.105469 4.113281 C 17.789062 3.421875 18.730469 2.996094 19.761719 2.996094 C 20.796875 2.996094 21.734375 3.421875 22.417969 4.113281 L 22.417969 4.117188 L 22.421875 4.117188 C 23.101562 4.804688 23.519531 5.761719 23.519531 6.804688 C 23.519531 7.8125 23.125 8.777344 22.421875 9.496094 L 22.417969 9.5 C 21.910156 10.011719 21.265625 10.375 20.542969 10.535156 Z M 30.3125 11.226562 L 30.296875 11.203125 C 30.066406 10.8125 29.691406 10.523438 29.25 10.402344 C 28.800781 10.28125 28.324219 10.34375 27.921875 10.578125 L 27.925781 10.578125 C 27.507812 10.816406 27.230469 11.210938 27.113281 11.652344 C 26.992188 12.105469 27.054688 12.585938 27.289062 12.992188 L 27.296875 13.003906 C 27.535156 13.417969 27.917969 13.699219 28.347656 13.808594 C 28.777344 13.933594 29.253906 13.882812 29.667969 13.636719 L 29.691406 13.625 C 30.09375 13.382812 30.367188 12.992188 30.480469 12.566406 C 30.59375 12.128906 30.550781 11.644531 30.3125 11.226562 M 3.992188 35.210938 L 6.089844 35.210938 L 6.089844 41.699219 L 9.113281 38.308594 L 11.628906 38.308594 L 7.976562 42.234375 L 11.644531 47.214844 L 9.242188 47.214844 L 6.089844 42.765625 L 6.089844 47.214844 L 3.992188 47.214844 L 3.992188 35.210938 M 14.066406 42.800781 C 14.066406 43.90625 14.851562 45.511719 16.738281 45.511719 C 17.90625 45.511719 18.683594 44.894531 19.074219 44.085938 C 19.285156 43.699219 19.382812 43.273438 19.414062 42.835938 C 19.429688 42.414062 19.347656 41.972656 19.171875 41.582031 C 18.804688 40.742188 17.988281 40.011719 16.722656 40.011719 C 15.027344 40.011719 14.0625 41.40625 14.0625 42.785156 L 14.0625 42.800781 Z M 21.496094 47.214844 L 19.398438 47.214844 L 19.398438 45.933594 C 18.839844 46.96875 17.675781 47.488281 16.4375 47.488281 C 13.617188 47.488281 11.96875 45.265625 11.96875 42.753906 C 11.96875 39.949219 13.96875 38.035156 16.4375 38.035156 C 18.035156 38.035156 19.011719 38.894531 19.398438 39.609375 L 19.398438 38.308594 L 21.496094 38.308594 L 21.496094 47.214844 M 23.871094 39.945312 L 22.777344 39.945312 L 22.777344 38.308594 L 23.863281 38.308594 L 23.863281 37.808594 C 23.863281 35.160156 25.851562 35 27.355469 34.984375 L 27.355469 36.617188 C 26.828125 36.617188 25.964844 36.617188 25.964844 37.871094 L 25.964844 38.3125 L 27.355469 38.3125 L 27.355469 39.953125 L 25.964844 39.953125 L 25.964844 47.214844 L 23.863281 47.214844 L 23.863281 39.945312 M 28.789062 35.210938 L 30.882812 35.210938 L 30.882812 41.699219 L 33.910156 38.308594 L 36.425781 38.308594 L 32.773438 42.234375 L 36.4375 47.214844 L 34.039062 47.214844 L 30.886719 42.765625 L 30.886719 47.214844 L 28.789062 47.214844 L 28.789062 35.210938 M 38.863281 42.800781 C 38.863281 43.90625 39.640625 45.511719 41.535156 45.511719 C 42.703125 45.511719 43.472656 44.894531 43.871094 44.085938 C 44.082031 43.699219 44.179688 43.273438 44.210938 42.835938 C 44.222656 42.414062 44.144531 41.972656 43.96875 41.582031 C 43.601562 40.742188 42.785156 40.011719 41.519531 40.011719 C 39.824219 40.011719 38.863281 41.40625 38.863281 42.785156 Z M 46.289062 47.214844 L 44.191406 47.214844 L 44.191406 45.933594 C 43.632812 46.96875 42.46875 47.488281 41.230469 47.488281 C 38.414062 47.488281 36.765625 45.265625 36.765625 42.753906 C 36.765625 39.949219 38.765625 38.035156 41.230469 38.035156 C 42.832031 38.035156 43.808594 38.894531 44.191406 39.609375 L 44.191406 38.308594 L 46.289062 38.308594 L 46.289062 47.214844 "/>
</g>
</svg>
